<mxfile host="app.diagrams.net" modified="2024-01-24T03:49:14.386Z" agent="Mozilla/5.0 (Windows NT 10.0; Win64; x64) AppleWebKit/537.36 (KHTML, like Gecko) Chrome/120.0.0.0 Safari/537.36 Edg/120.0.0.0" etag="IzAxcLgRDwpqaW_zxu-m" version="23.0.0" type="github">
  <diagram name="Page-1" id="e3a06f82-3646-2815-327d-82caf3d4e204">
    <mxGraphModel dx="2066" dy="1157" grid="1" gridSize="10" guides="1" tooltips="1" connect="1" arrows="1" fold="1" page="1" pageScale="1.5" pageWidth="1169" pageHeight="826" background="none" math="0" shadow="0">
      <root>
        <mxCell id="0" style=";html=1;" />
        <mxCell id="1" style=";html=1;" parent="0" />
        <mxCell id="rLzoMQxyd9ui-UFx4T2D-10" value="" style="whiteSpace=wrap;html=1;fillColor=#e1d5e7;fontSize=14;strokeColor=#9673a6;verticalAlign=top;" vertex="1" parent="1">
          <mxGeometry x="580" y="40" width="270" height="150" as="geometry" />
        </mxCell>
        <mxCell id="6a7d8f32e03d9370-15" value="Proxmox VE:&lt;br&gt;192.168.1.89:8006&lt;br&gt;" style="verticalLabelPosition=top;aspect=fixed;html=1;verticalAlign=bottom;strokeColor=none;shape=mxgraph.citrix.cache_server;fillColor=#66B2FF;gradientColor=#0066CC;fontSize=14;labelPosition=center;align=center;" parent="1" vertex="1">
          <mxGeometry x="610" y="80" width="71" height="97.5" as="geometry" />
        </mxCell>
        <mxCell id="6a7d8f32e03d9370-21" value="&lt;b&gt;Firewall&lt;br&gt;&lt;/b&gt;" style="verticalLabelPosition=bottom;aspect=fixed;html=1;verticalAlign=top;strokeColor=none;shape=mxgraph.citrix.firewall;fillColor=#66B2FF;gradientColor=#0066CC;fontSize=14;" parent="1" vertex="1">
          <mxGeometry x="1100" y="90" width="75" height="93" as="geometry" />
        </mxCell>
        <mxCell id="6a7d8f32e03d9370-62" value="Homelab in Proxmox" style="text;strokeColor=none;fillColor=none;html=1;fontSize=24;fontStyle=1;verticalAlign=middle;align=center;" parent="1" vertex="1">
          <mxGeometry x="820" y="20" width="320" height="40" as="geometry" />
        </mxCell>
        <mxCell id="2cuD-tpTCSGJEISm3NcC-3" value="" style="endArrow=none;html=1;rounded=0;entryX=0.986;entryY=0.569;entryDx=0;entryDy=0;entryPerimeter=0;movable=1;resizable=1;rotatable=1;deletable=1;editable=1;locked=0;connectable=1;exitX=-0.029;exitY=0.633;exitDx=0;exitDy=0;strokeWidth=3;exitPerimeter=0;" parent="1" source="2cuD-tpTCSGJEISm3NcC-4" target="6a7d8f32e03d9370-15" edge="1">
          <mxGeometry width="50" height="50" relative="1" as="geometry">
            <mxPoint x="1020" y="290" as="sourcePoint" />
            <mxPoint x="1044.273" y="174.98749999999995" as="targetPoint" />
            <Array as="points" />
          </mxGeometry>
        </mxCell>
        <mxCell id="2cuD-tpTCSGJEISm3NcC-5" value="" style="group" parent="1" vertex="1" connectable="0">
          <mxGeometry x="770" y="80" width="80" height="90" as="geometry" />
        </mxCell>
        <mxCell id="2cuD-tpTCSGJEISm3NcC-4" value="&lt;b&gt;pfSense 10.0.1.0/24&lt;/b&gt;" style="whiteSpace=wrap;html=1;fillColor=#FFD470;gradientColor=none;fontSize=14;strokeColor=none;verticalAlign=top;" parent="2cuD-tpTCSGJEISm3NcC-5" vertex="1">
          <mxGeometry width="70" height="90" as="geometry" />
        </mxCell>
        <mxCell id="2cuD-tpTCSGJEISm3NcC-1" value="" style="verticalLabelPosition=bottom;aspect=fixed;html=1;verticalAlign=top;strokeColor=none;shape=mxgraph.citrix.router;fillColor=#66B2FF;gradientColor=#0066CC;fontSize=14;movable=1;resizable=1;rotatable=1;deletable=1;editable=1;locked=0;connectable=1;" parent="2cuD-tpTCSGJEISm3NcC-5" vertex="1">
          <mxGeometry x="10.790624999999991" y="50" width="50.146875" height="33.28125" as="geometry" />
        </mxCell>
        <mxCell id="6a7d8f32e03d9370-59" value="&lt;b&gt;Enterprise Environment&lt;br&gt;&lt;/b&gt;" style="whiteSpace=wrap;html=1;fillColor=#EDEDED;fontSize=14;strokeColor=none;verticalAlign=top;direction=south;" parent="1" vertex="1">
          <mxGeometry x="1240" y="20.25" width="500" height="389.75" as="geometry" />
        </mxCell>
        <mxCell id="2cuD-tpTCSGJEISm3NcC-6" value="" style="verticalLabelPosition=bottom;sketch=0;aspect=fixed;html=1;verticalAlign=top;strokeColor=none;align=center;outlineConnect=0;shape=mxgraph.citrix.laptop_2;" parent="1" vertex="1">
          <mxGeometry x="1509" y="202.5" width="116" height="86.5" as="geometry" />
        </mxCell>
        <mxCell id="6a7d8f32e03d9370-25" value="&lt;b&gt;Windows Server 2019&lt;/b&gt;&lt;br&gt;Active Directory&lt;br&gt;DHCP Server&lt;br&gt;DNS Server&lt;br&gt;&lt;b&gt;10.0.2.2&lt;/b&gt;" style="verticalLabelPosition=bottom;aspect=fixed;html=1;verticalAlign=top;strokeColor=none;shape=mxgraph.citrix.proxy_server;fillColor=#66B2FF;gradientColor=#0066CC;fontSize=14;" parent="1" vertex="1">
          <mxGeometry x="1352" y="50" width="76.5" height="90" as="geometry" />
        </mxCell>
        <mxCell id="6a7d8f32e03d9370-2" value="&lt;b&gt;User1&lt;br&gt;10.0.2.7&lt;br&gt;&lt;/b&gt;" style="verticalLabelPosition=bottom;aspect=fixed;html=1;verticalAlign=top;strokeColor=none;shape=mxgraph.citrix.laptop_2;fillColor=#66B2FF;gradientColor=#0066CC;fontSize=14;" parent="1" vertex="1">
          <mxGeometry x="1595.75" y="30.000000000000004" width="116" height="86.5" as="geometry" />
        </mxCell>
        <mxCell id="2cuD-tpTCSGJEISm3NcC-22" value="&lt;b&gt;VMBR2&lt;br&gt;10.0.2.1/24&lt;br&gt;&lt;/b&gt;" style="verticalLabelPosition=bottom;aspect=fixed;html=1;verticalAlign=top;strokeColor=none;shape=mxgraph.citrix.switch;fillColor=#66B2FF;gradientColor=#0066CC;fontSize=14;" parent="1" vertex="1">
          <mxGeometry x="1270" y="320" width="92" height="41.5" as="geometry" />
        </mxCell>
        <mxCell id="6a7d8f32e03d9370-39" style="edgeStyle=none;rounded=0;html=1;startSize=10;endSize=10;jettySize=auto;orthogonalLoop=1;fontSize=14;endArrow=none;endFill=0;strokeWidth=2;entryX=0.954;entryY=0.822;entryDx=0;entryDy=0;entryPerimeter=0;" parent="1" source="2cuD-tpTCSGJEISm3NcC-6" target="6a7d8f32e03d9370-25" edge="1">
          <mxGeometry relative="1" as="geometry">
            <mxPoint x="3093" y="1106.25" as="targetPoint" />
            <mxPoint x="3069" y="1100.4928571428572" as="sourcePoint" />
            <Array as="points">
              <mxPoint x="1570" y="124" />
            </Array>
          </mxGeometry>
        </mxCell>
        <mxCell id="6a7d8f32e03d9370-47" style="edgeStyle=none;rounded=0;html=1;startSize=10;endSize=10;jettySize=auto;orthogonalLoop=1;fontSize=14;endArrow=none;endFill=0;strokeWidth=2;movable=1;resizable=1;rotatable=1;deletable=1;editable=1;locked=0;connectable=1;exitX=-0.05;exitY=0.73;exitDx=0;exitDy=0;exitPerimeter=0;" parent="1" source="6a7d8f32e03d9370-2" target="6a7d8f32e03d9370-25" edge="1">
          <mxGeometry relative="1" as="geometry">
            <mxPoint x="3190" y="920.2255747126437" as="sourcePoint" />
          </mxGeometry>
        </mxCell>
        <mxCell id="2cuD-tpTCSGJEISm3NcC-17" value="" style="endArrow=none;html=1;rounded=0;strokeWidth=3;entryX=0.239;entryY=0.096;entryDx=0;entryDy=0;entryPerimeter=0;" parent="1" source="6a7d8f32e03d9370-25" target="2cuD-tpTCSGJEISm3NcC-22" edge="1">
          <mxGeometry width="50" height="50" relative="1" as="geometry">
            <mxPoint x="3698" y="1196.25" as="sourcePoint" />
            <mxPoint x="3660.735219924559" y="1140.25" as="targetPoint" />
            <Array as="points">
              <mxPoint x="1292" y="95" />
            </Array>
          </mxGeometry>
        </mxCell>
        <mxCell id="6a7d8f32e03d9370-56" style="edgeStyle=none;rounded=0;html=1;startSize=10;endSize=10;jettySize=auto;orthogonalLoop=1;fontSize=14;endArrow=none;endFill=0;strokeWidth=2;entryX=-0.033;entryY=0.398;entryDx=0;entryDy=0;entryPerimeter=0;exitX=0.5;exitY=0.917;exitDx=0;exitDy=0;exitPerimeter=0;" parent="1" source="6a7d8f32e03d9370-21" target="2cuD-tpTCSGJEISm3NcC-22" edge="1">
          <mxGeometry relative="1" as="geometry">
            <mxPoint x="1060" y="251" as="sourcePoint" />
            <mxPoint x="1265" y="852.3201213818861" as="targetPoint" />
            <Array as="points">
              <mxPoint x="1140" y="337" />
              <mxPoint x="1170" y="337" />
            </Array>
          </mxGeometry>
        </mxCell>
        <mxCell id="2cuD-tpTCSGJEISm3NcC-55" value="&lt;b&gt;Firewall&lt;/b&gt;" style="verticalLabelPosition=bottom;aspect=fixed;html=1;verticalAlign=top;strokeColor=none;shape=mxgraph.citrix.firewall;fillColor=#66B2FF;gradientColor=#0066CC;fontSize=14;" parent="1" vertex="1">
          <mxGeometry x="1080" y="458" width="75" height="93" as="geometry" />
        </mxCell>
        <mxCell id="6a7d8f32e03d9370-61" value="&lt;b&gt;Attack Network&lt;/b&gt;" style="whiteSpace=wrap;html=1;fillColor=#f8cecc;fontSize=14;strokeColor=none;verticalAlign=top;" parent="1" vertex="1">
          <mxGeometry x="1240" y="430" width="500" height="140" as="geometry" />
        </mxCell>
        <mxCell id="6a7d8f32e03d9370-26" value="&lt;b&gt;VMBR3&lt;br&gt;10.0.3.1/24&lt;br&gt;&lt;/b&gt;" style="verticalLabelPosition=bottom;aspect=fixed;html=1;verticalAlign=top;strokeColor=none;shape=mxgraph.citrix.switch;fillColor=#66B2FF;gradientColor=#0066CC;fontSize=14;" parent="1" vertex="1">
          <mxGeometry x="1280.0026369168356" y="474.25" width="92" height="41.5" as="geometry" />
        </mxCell>
        <mxCell id="6a7d8f32e03d9370-27" value="&lt;b&gt;Kali Linux&lt;br&gt;&lt;/b&gt;" style="verticalLabelPosition=top;aspect=fixed;html=1;verticalAlign=bottom;strokeColor=none;shape=mxgraph.citrix.thin_client;fillColor=#66B2FF;gradientColor=#0066CC;fontSize=14;labelPosition=center;align=center;" parent="1" vertex="1">
          <mxGeometry x="1649.9955375253548" y="464.5" width="71" height="71" as="geometry" />
        </mxCell>
        <mxCell id="6a7d8f32e03d9370-55" style="edgeStyle=none;rounded=0;html=1;startSize=10;endSize=10;jettySize=auto;orthogonalLoop=1;fontSize=14;endArrow=none;endFill=0;strokeWidth=2;exitX=0.978;exitY=0.596;exitDx=0;exitDy=0;exitPerimeter=0;" parent="1" source="6a7d8f32e03d9370-26" target="6a7d8f32e03d9370-27" edge="1">
          <mxGeometry relative="1" as="geometry">
            <Array as="points">
              <mxPoint x="1470" y="500" />
            </Array>
          </mxGeometry>
        </mxCell>
        <mxCell id="6a7d8f32e03d9370-52" style="edgeStyle=none;rounded=0;html=1;startSize=10;endSize=10;jettySize=auto;orthogonalLoop=1;fontSize=14;endArrow=none;endFill=0;strokeWidth=2;exitX=1.04;exitY=0.371;exitDx=0;exitDy=0;exitPerimeter=0;" parent="1" source="2cuD-tpTCSGJEISm3NcC-55" target="6a7d8f32e03d9370-26" edge="1">
          <mxGeometry relative="1" as="geometry">
            <mxPoint x="1150" y="610" as="sourcePoint" />
          </mxGeometry>
        </mxCell>
        <mxCell id="2cuD-tpTCSGJEISm3NcC-59" value="" style="group" parent="1" vertex="1" connectable="0">
          <mxGeometry x="720" y="301" width="280" height="250" as="geometry" />
        </mxCell>
        <mxCell id="6a7d8f32e03d9370-60" value="&lt;b&gt;Lan Management&lt;/b&gt;" style="whiteSpace=wrap;html=1;fillColor=#d5e8d4;fontSize=14;strokeColor=none;verticalAlign=top;" parent="2cuD-tpTCSGJEISm3NcC-59" vertex="1">
          <mxGeometry width="280" height="250" as="geometry" />
        </mxCell>
        <mxCell id="2cuD-tpTCSGJEISm3NcC-9" value="" style="group" parent="2cuD-tpTCSGJEISm3NcC-59" vertex="1" connectable="0">
          <mxGeometry x="200" y="99" width="70" height="80" as="geometry" />
        </mxCell>
        <mxCell id="2cuD-tpTCSGJEISm3NcC-7" value="&lt;b&gt;pfSense&lt;br&gt;10.0.1.1&lt;br&gt;&lt;/b&gt;" style="whiteSpace=wrap;html=1;fillColor=#dae8fc;fontSize=14;strokeColor=none;verticalAlign=top;" parent="2cuD-tpTCSGJEISm3NcC-9" vertex="1">
          <mxGeometry x="-10" y="-10" width="80" height="90" as="geometry" />
        </mxCell>
        <mxCell id="6a7d8f32e03d9370-13" value="" style="verticalLabelPosition=bottom;aspect=fixed;html=1;verticalAlign=top;strokeColor=none;shape=mxgraph.citrix.router;fillColor=#66B2FF;gradientColor=#0066CC;fontSize=14;" parent="2cuD-tpTCSGJEISm3NcC-9" vertex="1">
          <mxGeometry x="2.5" y="40.25" width="55" height="36.5" as="geometry" />
        </mxCell>
        <mxCell id="2cuD-tpTCSGJEISm3NcC-11" value="&lt;b&gt;Ubuntu Linux&lt;br&gt;10.0.1.5&lt;br&gt;&lt;/b&gt;" style="verticalLabelPosition=bottom;sketch=0;aspect=fixed;html=1;verticalAlign=top;strokeColor=none;align=center;outlineConnect=0;shape=mxgraph.citrix.laptop_1;" parent="2cuD-tpTCSGJEISm3NcC-59" vertex="1">
          <mxGeometry x="10" y="79" width="91" height="77" as="geometry" />
        </mxCell>
        <mxCell id="6a7d8f32e03d9370-45" style="edgeStyle=none;rounded=0;html=1;startSize=10;endSize=10;jettySize=auto;orthogonalLoop=1;fontSize=14;endArrow=none;endFill=0;strokeWidth=2;entryX=0;entryY=0.355;entryDx=0;entryDy=0;entryPerimeter=0;" parent="2cuD-tpTCSGJEISm3NcC-59" source="2cuD-tpTCSGJEISm3NcC-11" target="2cuD-tpTCSGJEISm3NcC-7" edge="1">
          <mxGeometry relative="1" as="geometry">
            <mxPoint x="105" y="139.43556701030934" as="sourcePoint" />
          </mxGeometry>
        </mxCell>
        <mxCell id="2cuD-tpTCSGJEISm3NcC-56" style="edgeStyle=none;rounded=0;html=1;startSize=10;endSize=10;jettySize=auto;orthogonalLoop=1;fontSize=14;endArrow=none;endFill=0;strokeWidth=2;exitX=-0.053;exitY=0.468;exitDx=0;exitDy=0;exitPerimeter=0;entryX=0.85;entryY=0.989;entryDx=0;entryDy=0;entryPerimeter=0;" parent="2cuD-tpTCSGJEISm3NcC-59" target="2cuD-tpTCSGJEISm3NcC-7" edge="1">
          <mxGeometry relative="1" as="geometry">
            <mxPoint x="356.0250000000001" y="202.5239999999999" as="sourcePoint" />
            <mxPoint x="230" y="181" as="targetPoint" />
            <Array as="points">
              <mxPoint x="258" y="203" />
            </Array>
          </mxGeometry>
        </mxCell>
        <mxCell id="6a7d8f32e03d9370-58" value="&lt;b&gt;Security Operation Center&lt;/b&gt;" style="whiteSpace=wrap;html=1;fillColor=#dae8fc;fontSize=14;strokeColor=none;verticalAlign=top;" parent="1" vertex="1">
          <mxGeometry x="1240" y="590" width="500" height="167.12" as="geometry" />
        </mxCell>
        <mxCell id="6a7d8f32e03d9370-36" style="edgeStyle=none;rounded=0;html=1;startSize=10;endSize=10;jettySize=auto;orthogonalLoop=1;fontSize=14;endArrow=none;endFill=0;strokeWidth=2;exitX=0.509;exitY=0.711;exitDx=0;exitDy=0;exitPerimeter=0;entryX=1.022;entryY=0.265;entryDx=0;entryDy=0;entryPerimeter=0;" parent="1" target="2cuD-tpTCSGJEISm3NcC-23" edge="1">
          <mxGeometry relative="1" as="geometry">
            <mxPoint x="1677.2939999999999" y="657.7714999999998" as="sourcePoint" />
            <mxPoint x="1400" y="657.12" as="targetPoint" />
          </mxGeometry>
        </mxCell>
        <mxCell id="6a7d8f32e03d9370-1" value="&lt;b&gt;Splunk Enterprise&lt;/b&gt;" style="verticalLabelPosition=bottom;aspect=fixed;html=1;verticalAlign=top;strokeColor=none;shape=mxgraph.citrix.laptop_2;fillColor=#66B2FF;gradientColor=#0066CC;fontSize=14;" parent="1" vertex="1">
          <mxGeometry x="1618.25" y="607.12" width="116" height="86.5" as="geometry" />
        </mxCell>
        <mxCell id="2cuD-tpTCSGJEISm3NcC-23" value="&lt;b&gt;10.0.4.1/24&lt;/b&gt;" style="verticalLabelPosition=bottom;aspect=fixed;html=1;verticalAlign=top;strokeColor=none;shape=mxgraph.citrix.switch;fillColor=#66B2FF;gradientColor=#0066CC;fontSize=14;" parent="1" vertex="1">
          <mxGeometry x="1290" y="647.12" width="92" height="41.5" as="geometry" />
        </mxCell>
        <mxCell id="2cuD-tpTCSGJEISm3NcC-60" value="" style="edgeStyle=none;rounded=0;html=1;startSize=10;endSize=10;jettySize=auto;orthogonalLoop=1;fontSize=14;endArrow=none;endFill=0;strokeWidth=2;exitX=-0.043;exitY=0.217;exitDx=0;exitDy=0;exitPerimeter=0;" parent="1" source="2cuD-tpTCSGJEISm3NcC-23" target="6a7d8f32e03d9370-19" edge="1">
          <mxGeometry relative="1" as="geometry">
            <mxPoint x="1286" y="656" as="sourcePoint" />
            <mxPoint x="880" y="656" as="targetPoint" />
          </mxGeometry>
        </mxCell>
        <mxCell id="6a7d8f32e03d9370-19" value="&lt;b&gt;Firewall&lt;/b&gt;" style="verticalLabelPosition=bottom;aspect=fixed;html=1;verticalAlign=top;strokeColor=none;shape=mxgraph.citrix.firewall;fillColor=#66B2FF;gradientColor=#0066CC;fontSize=14;" parent="1" vertex="1">
          <mxGeometry x="900" y="607.12" width="75" height="93" as="geometry" />
        </mxCell>
        <mxCell id="6a7d8f32e03d9370-46" style="edgeStyle=none;rounded=0;html=1;startSize=10;endSize=10;jettySize=auto;orthogonalLoop=1;fontSize=14;endArrow=none;endFill=0;strokeWidth=2;entryX=0.264;entryY=1.116;entryDx=0;entryDy=0;entryPerimeter=0;" parent="1" source="6a7d8f32e03d9370-19" target="6a7d8f32e03d9370-13" edge="1">
          <mxGeometry relative="1" as="geometry">
            <mxPoint x="940" y="460" as="targetPoint" />
          </mxGeometry>
        </mxCell>
        <mxCell id="6a7d8f32e03d9370-48" style="edgeStyle=none;rounded=0;html=1;startSize=10;endSize=10;jettySize=auto;orthogonalLoop=1;fontSize=14;endArrow=none;endFill=0;strokeWidth=2;entryX=0.863;entryY=-0.011;entryDx=0;entryDy=0;entryPerimeter=0;" parent="1" source="6a7d8f32e03d9370-21" target="2cuD-tpTCSGJEISm3NcC-7" edge="1">
          <mxGeometry relative="1" as="geometry">
            <Array as="points">
              <mxPoint x="980" y="137" />
            </Array>
          </mxGeometry>
        </mxCell>
        <mxCell id="6a7d8f32e03d9370-51" style="edgeStyle=none;rounded=0;html=1;startSize=10;endSize=10;jettySize=auto;orthogonalLoop=1;fontSize=14;endArrow=none;endFill=0;strokeWidth=2;movable=1;resizable=1;rotatable=1;deletable=1;editable=1;locked=0;connectable=1;exitX=0.375;exitY=0;exitDx=0;exitDy=0;exitPerimeter=0;" parent="1" source="2cuD-tpTCSGJEISm3NcC-7" edge="1">
          <mxGeometry relative="1" as="geometry">
            <mxPoint x="850" y="140" as="targetPoint" />
            <Array as="points">
              <mxPoint x="940" y="140" />
            </Array>
          </mxGeometry>
        </mxCell>
      </root>
    </mxGraphModel>
  </diagram>
</mxfile>
